<svg width="24" height="24" viewBox="0 0 24 24" fill="none" xmlns="http://www.w3.org/2000/svg">
<path d="M12 18.25C11.8011 18.25 11.6103 18.329 11.4697 18.4697C11.329 18.6103 11.25 18.8011 11.25 19C11.25 19.1989 11.329 19.3897 11.4697 19.5303C11.6103 19.671 11.8011 19.75 12 19.75H18C18.4641 19.75 18.9092 19.5656 19.2374 19.2374C19.5656 18.9092 19.75 18.4641 19.75 18V6C19.75 5.53587 19.5656 5.09075 19.2374 4.76256C18.9092 4.43437 18.4641 4.25 18 4.25H12C11.8011 4.25 11.6103 4.32902 11.4697 4.46967C11.329 4.61032 11.25 4.80109 11.25 5C11.25 5.19891 11.329 5.38968 11.4697 5.53033C11.6103 5.67098 11.8011 5.75 12 5.75H18C18.0663 5.75 18.1299 5.77634 18.1768 5.82322C18.2237 5.87011 18.25 5.9337 18.25 6V18C18.25 18.0663 18.2237 18.1299 18.1768 18.1768C18.1299 18.2237 18.0663 18.25 18 18.25H12Z" fill="white"/>
<path fill-rule="evenodd" clip-rule="evenodd" d="M14.503 14.365C15.193 14.365 15.753 13.805 15.753 13.115V10.875C15.753 10.185 15.193 9.62498 14.503 9.62498H9.88999C9.88363 9.55162 9.87696 9.47828 9.86999 9.40498L9.81599 8.84898C9.7969 8.65261 9.73073 8.46373 9.6231 8.29838C9.51547 8.13302 9.36955 7.99606 9.19772 7.8991C9.02589 7.80214 8.83321 7.74805 8.63602 7.74142C8.43884 7.73478 8.24295 7.77579 8.06499 7.86098C6.43045 8.64418 4.95072 9.71604 3.69699 11.025L3.59799 11.128C3.37442 11.3612 3.2496 11.6719 3.2496 11.995C3.2496 12.3181 3.37442 12.6287 3.59799 12.862L3.69799 12.965C4.95144 14.2738 6.43081 15.3456 8.06499 16.129C8.24295 16.2142 8.43884 16.2552 8.63602 16.2485C8.83321 16.2419 9.02589 16.1878 9.19772 16.0909C9.36955 15.9939 9.51547 15.8569 9.6231 15.6916C9.73073 15.5262 9.7969 15.3374 9.81599 15.141L9.86999 14.585L9.88999 14.365H14.503ZM9.19499 12.865C9.00414 12.8651 8.82053 12.938 8.68156 13.0688C8.54258 13.1996 8.4587 13.3785 8.44699 13.569C8.42799 13.859 8.40499 14.15 8.37699 14.44L8.36099 14.602C7.05557 13.9291 5.8681 13.0486 4.84499 11.995C5.86806 10.9413 7.05553 10.0608 8.36099 9.38798L8.37699 9.54998C8.40499 9.83998 8.42799 10.13 8.44699 10.421C8.4587 10.6115 8.54258 10.7903 8.68156 10.9211C8.82053 11.0519 9.00414 11.1248 9.19499 11.125H14.253V12.865H9.19499Z" fill="white"/>
</svg>
