<svg width="100" height="100" viewBox="0 0 100 100" fill="none" xmlns="http://www.w3.org/2000/svg">
<rect width="100" height="100" rx="50" fill="#5630A1"/>
<rect width="100" height="100" rx="50" fill="url(#paint0_radial_59_2)" fill-opacity="0.15"/>
<path d="M50 13.8485L65 40.9394C65 48.1394 35 48.1394 35 40.9394C35.0849 40.9394 50 13.8485 50 13.8485Z" fill="url(#paint1_linear_59_2)"/>
<path d="M15.359 76C28 95.5 71.5 95.5 84.6411 76L66.7618 44C66.7618 50.5 33.2382 51 33.2382 44L15.359 76Z" fill="url(#paint2_linear_59_2)"/>
<path d="M15.359 76C28 95.5 71.5 95.5 84.6411 76L66.7618 44C66.7618 50.5 33.2382 51 33.2382 44L15.359 76Z" fill="url(#paint3_linear_59_2)"/>
<defs>
<radialGradient id="paint0_radial_59_2" cx="0" cy="0" r="1" gradientUnits="userSpaceOnUse" gradientTransform="translate(93 71) rotate(-153.616) scale(70.8837)">
<stop stop-opacity="0"/>
<stop offset="1"/>
</radialGradient>
<linearGradient id="paint1_linear_59_2" x1="39.5" y1="30.5" x2="62.5" y2="30.5" gradientUnits="userSpaceOnUse">
<stop stop-color="#212121"/>
<stop offset="0.5" stop-color="#303030"/>
<stop offset="1" stop-color="#212121"/>
</linearGradient>
<linearGradient id="paint2_linear_59_2" x1="45.5" y1="68.5" x2="58.5" y2="65" gradientUnits="userSpaceOnUse">
<stop stop-color="#D9D9D9"/>
<stop offset="1" stop-color="#AAAAAA"/>
</linearGradient>
<linearGradient id="paint3_linear_59_2" x1="37" y1="64.5" x2="24.5" y2="59" gradientUnits="userSpaceOnUse">
<stop stop-color="#D9D9D9"/>
<stop offset="1" stop-color="#AAAAAA"/>
</linearGradient>
</defs>
</svg>
