<svg width="32" height="32" viewBox="0 0 32 32" fill="none" xmlns="http://www.w3.org/2000/svg">
<path d="M28.9427 15.0573L18.276 4.39063C18.0895 4.20421 17.852 4.07727 17.5934 4.02585C17.3348 3.97443 17.0667 4.00083 16.8231 4.10172C16.5795 4.20262 16.3713 4.37347 16.2248 4.59268C16.0783 4.8119 16 5.06963 16 5.33329V10.06C12.3577 10.397 8.97229 12.0811 6.50624 14.7827C4.04019 17.4842 2.67102 21.0088 2.66666 24.6666V26.6666C2.66687 26.9434 2.7532 27.2132 2.91369 27.4387C3.07417 27.6642 3.30086 27.8342 3.56229 27.9251C3.82373 28.0159 4.10696 28.0232 4.3727 27.9458C4.63844 27.8684 4.87351 27.7103 5.04532 27.4933C6.35159 25.9399 7.95433 24.6624 9.75992 23.7355C11.5655 22.8085 13.5377 22.2507 15.5613 22.0946C15.628 22.0866 15.7947 22.0733 16 22.06V26.6666C16 26.9303 16.0783 27.188 16.2248 27.4072C16.3713 27.6264 16.5795 27.7973 16.8231 27.8982C17.0667 27.9991 17.3348 28.0255 17.5934 27.9741C17.852 27.9226 18.0895 27.7957 18.276 27.6093L28.9427 16.9426C29.1926 16.6926 29.333 16.3535 29.333 16C29.333 15.6464 29.1926 15.3073 28.9427 15.0573ZM18.6667 23.448V20.6666C18.6667 20.313 18.5262 19.9739 18.2761 19.7238C18.0261 19.4738 17.6869 19.3333 17.3333 19.3333C16.9933 19.3333 15.6053 19.4 15.2507 19.4466C11.6571 19.7777 8.23655 21.143 5.40266 23.3773C5.72432 20.4365 7.11938 17.7178 9.32073 15.7415C11.5221 13.7653 14.375 12.6704 17.3333 12.6666C17.6869 12.6666 18.0261 12.5261 18.2761 12.2761C18.5262 12.0261 18.6667 11.6869 18.6667 11.3333V8.55196L26.1147 16L18.6667 23.448Z" fill="white"/>
</svg>
