<svg width="32" height="32" viewBox="0 0 32 32" fill="none" xmlns="http://www.w3.org/2000/svg">
<path d="M16 2.66675C17.751 2.66675 19.4848 3.01162 21.1024 3.68169C22.7201 4.35175 24.19 5.33388 25.4281 6.57199C27.9286 9.07248 29.3333 12.4639 29.3333 16.0001C29.345 19.0789 28.2789 22.0648 26.32 24.4401L28.9867 27.1067C29.1717 27.2942 29.297 27.5323 29.3468 27.791C29.3967 28.0496 29.3688 28.3173 29.2667 28.5601C29.1559 28.8 28.9764 29.0016 28.7509 29.1393C28.5253 29.277 28.264 29.3445 28 29.3334H16C12.4638 29.3334 9.07239 27.9287 6.57191 25.4282C4.07142 22.9277 2.66666 19.5363 2.66666 16.0001C2.66666 12.4639 4.07142 9.07248 6.57191 6.57199C9.07239 4.07151 12.4638 2.66675 16 2.66675ZM16 26.6667H24.7867L23.5467 25.4267C23.2983 25.1769 23.1589 24.839 23.1589 24.4867C23.1589 24.1345 23.2983 23.7966 23.5467 23.5467C25.2925 21.8028 26.3798 19.5075 26.6231 17.0518C26.8664 14.5961 26.2507 12.1321 24.881 10.0794C23.5113 8.0268 21.4723 6.51256 19.1113 5.79471C16.7503 5.07686 14.2135 5.19982 11.933 6.14263C9.65257 7.08544 7.76953 8.78978 6.60475 10.9653C5.43996 13.1408 5.0655 15.6528 5.54516 18.0734C6.02482 20.494 7.32892 22.6735 9.23528 24.2404C11.1416 25.8073 13.5323 26.6648 16 26.6667Z" fill="white"/>
</svg>
