<svg width="32" height="32" viewBox="0 0 32 32" fill="none" xmlns="http://www.w3.org/2000/svg">
<path d="M19.2 16C19.2 16.8486 18.8629 17.6626 18.2628 18.2627C17.6626 18.8628 16.8487 19.2 16 19.2C15.1513 19.2 14.3374 18.8628 13.7373 18.2627C13.1372 17.6626 12.8 16.8486 12.8 16C12.8 15.1513 13.1372 14.3373 13.7373 13.7372C14.3374 13.1371 15.1513 12.8 16 12.8C16.8487 12.8 17.6626 13.1371 18.2628 13.7372C18.8629 14.3373 19.2 15.1513 19.2 16ZM9.60001 16C9.60001 16.8486 9.26287 17.6626 8.66275 18.2627C8.06264 18.8628 7.2487 19.2 6.40001 19.2C5.55132 19.2 4.73739 18.8628 4.13727 18.2627C3.53715 17.6626 3.20001 16.8486 3.20001 16C3.20001 15.1513 3.53715 14.3373 4.13727 13.7372C4.73739 13.1371 5.55132 12.8 6.40001 12.8C7.2487 12.8 8.06264 13.1371 8.66275 13.7372C9.26287 14.3373 9.60001 15.1513 9.60001 16ZM28.8 16C28.8 16.8486 28.4629 17.6626 27.8628 18.2627C27.2626 18.8628 26.4487 19.2 25.6 19.2C24.7513 19.2 23.9374 18.8628 23.3373 18.2627C22.7372 17.6626 22.4 16.8486 22.4 16C22.4 15.1513 22.7372 14.3373 23.3373 13.7372C23.9374 13.1371 24.7513 12.8 25.6 12.8C26.4487 12.8 27.2626 13.1371 27.8628 13.7372C28.4629 14.3373 28.8 15.1513 28.8 16Z" fill="white"/>
</svg>
